<svg width="243" height="243" viewBox="0 0 243 243" fill="none" xmlns="http://www.w3.org/2000/svg">
<path d="M182.667 0H60C26.8629 0 0 26.8629 0 60V182.667C0 215.804 26.8629 242.667 60 242.667H182.667C215.804 242.667 242.667 215.804 242.667 182.667V60C242.667 26.8629 215.804 0 182.667 0Z" fill="#6439FF"/>
<path d="M92.6398 47.0923L89.381 177.095H137.621L126.785 51.5848L92.6398 47.0923Z" fill="white"/>
<path d="M95.9009 170.25V196H152.289L113.502 173.183L95.9009 170.25Z" fill="white"/>
<path d="M92.6398 47.0911C92.6398 47.0911 116.429 44.7825 139.309 46.8814C149.825 47.8458 163.267 50.4784 173.751 58.6643C187.358 69.2891 190.096 98.6027 174.353 115.605C152.904 138.771 100.137 137.979 70.8017 138.632L71.7794 93.2318L119.788 97.2737L92.6398 47.0911Z" fill="white"/>
<path d="M76.2087 101.896H56V146.224L76.2087 118.144V101.896Z" fill="white"/>
<path d="M129.509 83.4746L130.333 94.5613C130.333 94.5613 146.334 93.9653 145.677 88.1768C144.837 80.7825 129.509 83.4746 129.509 83.4746Z" fill="#5627FF"/>
</svg>
