<svg width="24" height="24" viewBox="0 0 24 24" fill="none" xmlns="http://www.w3.org/2000/svg">
<circle cx="12" cy="12" r="11" stroke="#5B5B5B" stroke-width="1.5"/>
<path d="M7 12.75C7.41421 12.75 7.75 12.4142 7.75 12C7.75 11.5858 7.41421 11.25 7 11.25V12.75ZM1 12.75H7V11.25H1V12.75Z" fill="#5B5B5B"/>
<path d="M12.75 17C12.75 16.5858 12.4142 16.25 12 16.25C11.5858 16.25 11.25 16.5858 11.25 17H12.75ZM12.75 23V17H11.25V23H12.75Z" fill="#5B5B5B"/>
<path d="M17 11.25C16.5858 11.25 16.25 11.5858 16.25 12C16.25 12.4142 16.5858 12.75 17 12.75V11.25ZM23 11.25H17V12.75H23V11.25Z" fill="#5B5B5B"/>
<path d="M11.25 7C11.25 7.41421 11.5858 7.75 12 7.75C12.4142 7.75 12.75 7.41421 12.75 7H11.25ZM11.25 1V7H12.75V1H11.25Z" fill="#5B5B5B"/>
</svg>
