<svg width="35" height="35" viewBox="0 0 35 35" fill="none" xmlns="http://www.w3.org/2000/svg">
<g id="ep:picture-filled">
<path id="Vector" d="M3.28125 30.625C2.99117 30.625 2.71297 30.5098 2.50785 30.3046C2.30273 30.0995 2.1875 29.8213 2.1875 29.5312V5.46875C2.1875 5.17867 2.30273 4.90047 2.50785 4.69535C2.71297 4.49023 2.99117 4.375 3.28125 4.375H31.7188C32.0088 4.375 32.287 4.49023 32.4921 4.69535C32.6973 4.90047 32.8125 5.17867 32.8125 5.46875V29.5312C32.8125 29.8213 32.6973 30.0995 32.4921 30.3046C32.287 30.5098 32.0088 30.625 31.7188 30.625H3.28125ZM14.0656 22.8156L11.7097 20.4597C11.5046 20.2546 11.2264 20.1395 10.9364 20.1395C10.6464 20.1395 10.3682 20.2546 10.1631 20.4597L4.375 26.2522H30.9903L22.715 16.3209C22.6124 16.1975 22.4838 16.0981 22.3384 16.0299C22.1931 15.9617 22.0345 15.9264 21.8739 15.9264C21.7133 15.9264 21.5547 15.9617 21.4094 16.0299C21.264 16.0981 21.1355 16.1975 21.0328 16.3209L15.68 22.7434C15.5826 22.8602 15.462 22.9555 15.3257 23.023C15.1895 23.0906 15.0407 23.129 14.8887 23.1357C14.7368 23.1425 14.5852 23.1176 14.4434 23.0625C14.3017 23.0073 14.173 22.9233 14.0656 22.8156ZM8.75 13.125C8.75014 13.556 8.83519 13.9828 9.00027 14.381C9.16536 14.7792 9.40725 15.141 9.71215 15.4456C10.017 15.7503 10.379 15.992 10.7773 16.1568C11.1755 16.3216 11.6024 16.4064 12.0334 16.4062C12.4645 16.4061 12.8913 16.3211 13.2895 16.156C13.6876 15.9909 14.0494 15.749 14.3541 15.4441C14.6588 15.1392 14.9004 14.7773 15.0653 14.379C15.2301 13.9807 15.3148 13.5539 15.3147 13.1228C15.3144 12.2523 14.9683 11.4175 14.3525 10.8022C13.7368 10.1868 12.9018 9.84127 12.0312 9.84156C11.1607 9.84185 10.326 10.1879 9.7106 10.8037C9.09525 11.4195 8.74971 12.2545 8.75 13.125Z" fill="#A2A2A2"/>
</g>
</svg>
